<svg width="44" height="44" viewBox="0 0 44 44" fill="none" xmlns="http://www.w3.org/2000/svg">
<path opacity="0.15" d="M2.8233 41.525C2.8233 41.9383 4.8437 42.3347 8.44002 42.6269C12.0363 42.9192 16.914 43.0833 22 43.0833C27.0859 43.0833 31.9636 42.9192 35.5599 42.6269C39.1562 42.3347 41.1766 41.9383 41.1766 41.525C41.1766 41.1117 39.1562 40.7153 35.5599 40.4231C31.9636 40.1309 27.0859 39.9667 22 39.9667C16.914 39.9667 12.0363 40.1309 8.44002 40.4231C4.8437 40.7153 2.8233 41.1117 2.8233 41.525Z" fill="#45413C"/>
<path d="M3.85919 3.85917H40.1317V40.1317H3.85919V3.85917Z" fill="white"/>
<path d="M3.85919 3.85917H40.1317V40.1317H3.85919V3.85917Z" stroke="#45413C" stroke-width="1.33333" stroke-linecap="round" stroke-linejoin="round"/>
<path d="M6.45331 6.45333H37.5466V37.5467H6.45331V6.45333Z" fill="#00B8F0"/>
<path d="M6.45331 6.45333H37.5466V37.5467H6.45331V6.45333Z" stroke="#45413C" stroke-width="1.33333" stroke-linecap="round" stroke-linejoin="round"/>
<path d="M37.5833 8.61667V36.5108C37.5885 36.6531 37.5642 36.7948 37.5121 36.9272C37.4601 37.0597 37.3812 37.18 37.2806 37.2806C37.18 37.3812 37.0597 37.4601 36.9272 37.5121C36.7948 37.5642 36.6531 37.5885 36.5108 37.5833H8.61666C8.61184 33.778 9.35779 30.0091 10.8118 26.4926C12.2658 22.976 14.3993 19.7808 17.09 17.09C19.7808 14.3993 22.976 12.2658 26.4926 10.8118C30.0091 9.35779 33.778 8.61184 37.5833 8.61667Z" fill="#FF6242" stroke="#45413C" stroke-width="1.33333" stroke-linecap="round" stroke-linejoin="round"/>
<path d="M37.5833 12.9525V36.5108C37.5884 36.6531 37.5642 36.7948 37.5121 36.9273C37.46 37.0597 37.3812 37.18 37.2806 37.2806C37.18 37.3813 37.0597 37.4601 36.9272 37.5121C36.7948 37.5642 36.653 37.5885 36.5108 37.5833H12.9525C12.9477 34.3474 13.5815 31.1423 14.8176 28.1518C16.0537 25.1613 17.8678 22.4441 20.1559 20.1559C22.4441 17.8678 25.1613 16.0537 28.1518 14.8176C31.1423 13.5815 34.3474 12.9477 37.5833 12.9525Z" fill="#FFE500" stroke="#45413C" stroke-width="1.33333" stroke-linecap="round" stroke-linejoin="round"/>
<path d="M37.5834 17.4167V36.5108C37.5885 36.6531 37.5643 36.7948 37.5122 36.9272C37.4601 37.0597 37.3813 37.18 37.2806 37.2806C37.18 37.3812 37.0597 37.4601 36.9273 37.5121C36.7948 37.5642 36.6531 37.5885 36.5109 37.5833H17.4167C17.4167 32.2348 19.5414 27.1053 23.3234 23.3233C27.1054 19.5414 32.2348 17.4167 37.5834 17.4167Z" fill="#00DBA8" stroke="#45413C" stroke-width="1.33333" stroke-linecap="round" stroke-linejoin="round"/>
<path d="M37.5833 21.7525V36.5108C37.5884 36.6531 37.5642 36.7948 37.5121 36.9273C37.4601 37.0597 37.3812 37.18 37.2806 37.2806C37.18 37.3813 37.0597 37.4601 36.9272 37.5121C36.7948 37.5642 36.653 37.5885 36.5108 37.5833H21.7525C21.7476 35.503 22.1538 33.4423 22.9477 31.5194C23.7415 29.5966 24.9075 27.8495 26.3784 26.3785C27.8494 24.9075 29.5965 23.7416 31.5194 22.9477C33.4423 22.1538 35.503 21.7477 37.5833 21.7525Z" fill="#BF8DF2" stroke="#45413C" stroke-width="1.33333" stroke-linecap="round" stroke-linejoin="round"/>
<path d="M37.5833 25.8958V36.5108C37.5884 36.6531 37.5642 36.7948 37.5121 36.9273C37.46 37.0597 37.3812 37.18 37.2806 37.2806C37.18 37.3813 37.0597 37.4601 36.9272 37.5121C36.7948 37.5642 36.653 37.5885 36.5108 37.5833H25.8958C25.891 36.0472 26.19 34.5252 26.7756 33.105C27.3612 31.6848 28.222 30.3945 29.3082 29.3082C30.3945 28.222 31.6848 27.3613 33.105 26.7756C34.5252 26.19 36.0471 25.891 37.5833 25.8958Z" fill="#00B8F0" stroke="#45413C" stroke-width="1.33333" stroke-linecap="round" stroke-linejoin="round"/>
</svg>