<svg width="101" height="34" viewBox="0 0 101 34" fill="none" xmlns="http://www.w3.org/2000/svg">
<path d="M3.67769 7.51328C3.01611 7.51328 2.42913 7.36447 1.91673 7.06684C1.40433 6.76275 1.0022 6.34866 0.710329 5.82458C0.418458 5.29403 0.272522 4.68583 0.272522 4C0.272522 3.31417 0.418458 2.70921 0.710329 2.18513C1.0022 1.65458 1.40109 1.24049 1.907 0.942862C2.4194 0.638765 3.00638 0.486717 3.66796 0.486717C4.13495 0.486717 4.56951 0.570829 4.97165 0.739052C5.37378 0.900806 5.72403 1.1305 6.02238 1.42812C6.32723 1.71928 6.56072 2.05572 6.72288 2.43746L5.48729 2.89361C5.37702 2.65421 5.23109 2.44717 5.04948 2.27247C4.86787 2.09131 4.66032 1.9522 4.42682 1.85515C4.19332 1.75163 3.94037 1.69987 3.66796 1.69987C3.27231 1.69987 2.91882 1.80015 2.60749 2.00073C2.30265 2.19483 2.06267 2.46334 1.88754 2.80626C1.71891 3.14918 1.63459 3.54709 1.63459 4C1.63459 4.45291 1.72215 4.85406 1.89727 5.20345C2.07239 5.54636 2.31562 5.81811 2.62695 6.01868C2.93828 6.21279 3.29501 6.30984 3.69714 6.30984C3.97604 6.30984 4.229 6.25808 4.45601 6.15456C4.68951 6.04456 4.89382 5.89575 5.06894 5.70812C5.25055 5.52048 5.39648 5.30373 5.50675 5.05787L6.74233 5.50431C6.58018 5.89898 6.34668 6.24837 6.04184 6.55247C5.74348 6.85656 5.39324 7.09273 4.99111 7.26095C4.58897 7.42917 4.15117 7.51328 3.67769 7.51328Z" fill="white"/>
<path d="M19.5417 7.50843C18.8542 7.50843 18.2445 7.35962 17.7126 7.06199C17.1873 6.7579 16.7754 6.34381 16.4771 5.81973C16.1787 5.28918 16.0295 4.68422 16.0295 4.00485C16.0295 3.31255 16.1787 2.70436 16.4771 2.18028C16.7754 1.64972 17.184 1.23564 17.7029 0.938009C18.2283 0.640383 18.8315 0.49157 19.5125 0.49157C20.2 0.49157 20.8032 0.643618 21.3221 0.947714C21.8475 1.24534 22.2594 1.65943 22.5577 2.18998C22.8561 2.71406 23.0052 3.31902 23.0052 4.00485C23.0052 4.68422 22.8561 5.28918 22.5577 5.81973C22.2658 6.34381 21.8572 6.7579 21.3319 7.06199C20.813 7.35962 20.2163 7.50843 19.5417 7.50843ZM19.5417 6.29528C19.9568 6.29528 20.32 6.19823 20.6314 6.00413C20.9492 5.80355 21.1956 5.5318 21.3708 5.18889C21.5524 4.84597 21.6432 4.45129 21.6432 4.00485C21.6432 3.55194 21.5524 3.15403 21.3708 2.81111C21.1892 2.4682 20.9394 2.19969 20.6216 2.00558C20.3038 1.80501 19.9341 1.70472 19.5125 1.70472C19.1039 1.70472 18.7374 1.80501 18.4131 2.00558C18.0953 2.19969 17.8456 2.4682 17.664 2.81111C17.4824 3.15403 17.3916 3.55194 17.3916 4.00485C17.3916 4.45129 17.4824 4.84597 17.664 5.18889C17.8456 5.5318 18.0986 5.80355 18.4229 6.00413C18.7472 6.19823 19.1201 6.29528 19.5417 6.29528Z" fill="white"/>
<path d="M32.2924 7.39682V0.603179H33.7421L35.7268 3.53415L37.7115 0.603179H39.1514V7.39682H37.8283V2.68009L35.7268 5.76635L33.6253 2.6898V7.39682H32.2924Z" fill="white"/>
<path d="M48.4386 7.39682V0.603179H50.9681C51.4481 0.603179 51.8729 0.700231 52.2427 0.894335C52.6124 1.08197 52.901 1.34724 53.1085 1.69016C53.3161 2.02661 53.4199 2.41805 53.4199 2.86449C53.4199 3.30446 53.3193 3.6959 53.1183 4.03882C52.9172 4.38174 52.6415 4.65348 52.2913 4.85406C51.9411 5.04816 51.5357 5.14521 51.0752 5.14521H49.7715V7.39682H48.4386ZM49.7715 3.92236H51.046C51.3443 3.92236 51.5876 3.82531 51.7757 3.6312C51.9702 3.43063 52.0675 3.17506 52.0675 2.86449C52.0675 2.55392 51.9605 2.30159 51.7465 2.10749C51.5389 1.91338 51.2697 1.81633 50.939 1.81633H49.7715V3.92236Z" fill="white"/>
<path d="M68.0872 7.39682L65.4798 0.603179H66.8127L69.4979 7.39682H68.0872ZM62.7071 7.39682L65.3923 0.603179H66.7251L64.1178 7.39682H62.7071ZM63.9718 5.90222V4.72789H68.2429V5.90222H63.9718Z" fill="white"/>
<path d="M78.7851 7.39682V0.603179H80.1764L83.5037 5.16462V0.603179H84.8268V7.39682H83.5037L80.118 2.74803V7.39682H78.7851Z" fill="white"/>
<path d="M97.8208 4.59202L96.5658 4.27175L98.7548 0.603179H100.273L97.8208 4.59202ZM96.5268 7.39682V4.13587H97.8597V7.39682H96.5268ZM96.5658 4.59202L94.114 0.603179H95.6318L97.8208 4.27175L96.5658 4.59202Z" fill="white"/>
<path d="M0.272522 33.0133V12.0133H4.27477V29.2633H13.2725V33.0133H0.272522Z" fill="white"/>
<path d="M32.0159 33.5133C29.8476 33.5133 27.9248 33.0467 26.2474 32.1136C24.5905 31.1601 23.2916 29.8618 22.3506 28.2187C21.4097 26.5552 20.9392 24.6585 20.9392 22.5285C20.9392 20.3579 21.4097 18.451 22.3506 16.8079C23.2916 15.1445 24.5803 13.8462 26.2167 12.913C27.8736 11.9799 29.776 11.5133 31.9238 11.5133C34.0921 11.5133 35.9945 11.99 37.631 12.9434C39.2879 13.8766 40.5868 15.1749 41.5278 16.8383C42.4687 18.4815 42.9392 20.3782 42.9392 22.5285C42.9392 24.6585 42.4687 26.5552 41.5278 28.2187C40.6073 29.8618 39.3185 31.1601 37.6616 32.1136C36.0252 33.0467 34.1433 33.5133 32.0159 33.5133ZM32.0159 29.7097C33.3251 29.7097 34.4706 29.4054 35.4524 28.7968C36.4548 28.168 37.2321 27.316 37.7844 26.2408C38.3571 25.1657 38.6435 23.9282 38.6435 22.5285C38.6435 21.1085 38.3571 19.8609 37.7844 18.7858C37.2116 17.7106 36.4241 16.8687 35.4218 16.2602C34.4194 15.6313 33.2535 15.3169 31.9238 15.3169C30.6351 15.3169 29.4794 15.6313 28.4566 16.2602C27.4543 16.8687 26.6668 17.7106 26.094 18.7858C25.5212 19.8609 25.2349 21.1085 25.2349 22.5285C25.2349 23.9282 25.5212 25.1657 26.094 26.2408C26.6668 27.316 27.4645 28.168 28.4873 28.7968C29.5101 29.4054 30.6863 29.7097 32.0159 29.7097Z" fill="white"/>
<path d="M61.8591 33.5133C59.6659 33.5133 57.7186 33.0474 56.0173 32.1155C54.3365 31.1634 53.0144 29.8669 52.051 28.226C51.0876 26.5648 50.6059 24.6606 50.6059 22.5133C50.6059 20.366 51.0876 18.4718 52.051 16.831C53.0144 15.1698 54.3365 13.8733 56.0173 12.9415C57.7186 11.9893 59.6659 11.5133 61.8591 11.5133C63.171 11.5133 64.3804 11.7057 65.4873 12.0906C66.5941 12.4755 67.5678 13.0124 68.4082 13.7011C69.2691 14.3696 69.9865 15.1394 70.5605 16.0105L67.1168 18.1376C66.7684 17.5906 66.3072 17.1044 65.7332 16.679C65.1798 16.2536 64.5649 15.9194 63.8884 15.6763C63.212 15.4332 62.5356 15.3116 61.8591 15.3116C60.5063 15.3116 59.3072 15.6256 58.2618 16.2536C57.2164 16.8613 56.3965 17.702 55.8021 18.7757C55.2076 19.8494 54.9104 21.0952 54.9104 22.5133C54.9104 23.9111 55.1974 25.1569 55.7713 26.2509C56.3657 27.3448 57.1959 28.2057 58.2618 28.8337C59.3277 29.4415 60.5575 29.7453 61.9514 29.7453C63.0378 29.7453 64.0012 29.5326 64.8416 29.1072C65.7025 28.6818 66.3789 28.0842 66.8709 27.3144C67.3628 26.5446 67.6088 25.6532 67.6088 24.6404L71.6059 24.0326C71.6059 26.0381 71.1856 27.7499 70.3452 29.168C69.5253 30.586 68.3775 31.6698 66.9016 32.4194C65.4463 33.1486 63.7654 33.5133 61.8591 33.5133ZM62.5663 25.005V21.7536H71.6059V24.3365L69.3306 25.005H62.5663Z" fill="white"/>
<path d="M89.8457 33.5133C87.776 33.5133 85.9406 33.0467 84.3395 32.1136C82.7579 31.1601 81.518 29.8618 80.6198 28.2187C79.7216 26.5552 79.2725 24.6585 79.2725 22.5285C79.2725 20.3579 79.7216 18.451 80.6198 16.8079C81.518 15.1445 82.7481 13.8462 84.3102 12.913C85.8918 11.9799 87.7077 11.5133 89.7579 11.5133C91.8276 11.5133 93.6435 11.99 95.2056 12.9434C96.7872 13.8766 98.0271 15.1749 98.9252 16.8383C99.8234 18.4815 100.273 20.3782 100.273 22.5285C100.273 24.6585 99.8234 26.5552 98.9252 28.2187C98.0466 29.8618 96.8165 31.1601 95.2349 32.1136C93.6728 33.0467 91.8764 33.5133 89.8457 33.5133ZM89.8457 29.7097C91.0954 29.7097 92.1888 29.4054 93.1261 28.7968C94.0828 28.168 94.8248 27.316 95.352 26.2408C95.8988 25.1657 96.1721 23.9282 96.1721 22.5285C96.1721 21.1085 95.8988 19.8609 95.352 18.7858C94.8053 17.7106 94.0536 16.8687 93.0968 16.2602C92.14 15.6313 91.0271 15.3169 89.7579 15.3169C88.5277 15.3169 87.4245 15.6313 86.4482 16.2602C85.4915 16.8687 84.7397 17.7106 84.193 18.7858C83.6463 19.8609 83.3729 21.1085 83.3729 22.5285C83.3729 23.9282 83.6463 25.1657 84.193 26.2408C84.7397 27.316 85.5013 28.168 86.4775 28.7968C87.4538 29.4054 88.5766 29.7097 89.8457 29.7097Z" fill="white"/>
</svg>
